# xmcd
#
# Track frame offsets: 
#        150
#        10616
#        20880
#        28729
#        50170
#        64183
#        78633
#        91364
#        106847
#        119973
#        138288
#
# Disc length: 2030 seconds
#
# Revision: 0
# Processed by: cddbd v1.5.2PL0 Copyright (c) Steve Scherf et al.
# Submitted via: ExactAudioCopy v0.99pb4
#
DISCID=9907ec0b
DTITLE=Gail Davies - I'll Be There
DYEAR=1980
DGENRE=Country
TTITLE0=I'll Be There (If You Ever Want Me)
TTITLE1=It's a Lovely, Lovely World
TTITLE2=Mam's Gonna Give You Sweet Things
TTITLE3=Kentucky
TTITLE4=Honky Tonk Waltz
TTITLE5=Farewell Song
TTITLE6=Object of My Affection
TTITLE7=Get That feelin' Inside
TTITLE8=I'm Hungry, I'm Tired
TTITLE9=Grandma's Song
TTITLE10=No One to Welcome Me Home
EXTD=
EXTT0=
EXTT1=
EXTT2=
EXTT3=
EXTT4=
EXTT5=
EXTT6=
EXTT7=
EXTT8=
EXTT9=
EXTT10=
PLAYORDER=
